<mxfile host="app.diagrams.net" modified="2024-04-21T02:40:18.490Z" agent="Mozilla/5.0 (Windows NT 10.0; Win64; x64) AppleWebKit/537.36 (KHTML, like Gecko) Chrome/124.0.0.0 Safari/537.36" etag="yDvsKYFpkDaso0glVXMS" version="24.2.5" type="device">
  <diagram name="Trang-1" id="FU-uBumQ2bNbAoqQIy4l">
    <mxGraphModel dx="1595" dy="594" grid="1" gridSize="10" guides="1" tooltips="1" connect="1" arrows="1" fold="1" page="1" pageScale="1" pageWidth="827" pageHeight="1169" math="0" shadow="0">
      <root>
        <mxCell id="0" />
        <mxCell id="1" parent="0" />
        <mxCell id="fvwAENwHUn6193kttJ-c-1" value="AWS Cloud" style="points=[[0,0],[0.25,0],[0.5,0],[0.75,0],[1,0],[1,0.25],[1,0.5],[1,0.75],[1,1],[0.75,1],[0.5,1],[0.25,1],[0,1],[0,0.75],[0,0.5],[0,0.25]];outlineConnect=0;gradientColor=none;html=1;whiteSpace=wrap;fontSize=12;fontStyle=0;container=1;pointerEvents=0;collapsible=0;recursiveResize=0;shape=mxgraph.aws4.group;grIcon=mxgraph.aws4.group_aws_cloud_alt;strokeColor=#232F3E;fillColor=none;verticalAlign=top;align=left;spacingLeft=30;fontColor=#232F3E;dashed=0;" vertex="1" parent="1">
          <mxGeometry x="480" y="310" width="770" height="430" as="geometry" />
        </mxCell>
        <mxCell id="fvwAENwHUn6193kttJ-c-5" value="VPC" style="points=[[0,0],[0.25,0],[0.5,0],[0.75,0],[1,0],[1,0.25],[1,0.5],[1,0.75],[1,1],[0.75,1],[0.5,1],[0.25,1],[0,1],[0,0.75],[0,0.5],[0,0.25]];outlineConnect=0;gradientColor=none;html=1;whiteSpace=wrap;fontSize=12;fontStyle=0;container=1;pointerEvents=0;collapsible=0;recursiveResize=0;shape=mxgraph.aws4.group;grIcon=mxgraph.aws4.group_vpc2;strokeColor=#8C4FFF;fillColor=none;verticalAlign=top;align=left;spacingLeft=30;fontColor=#AAB7B8;dashed=0;" vertex="1" parent="fvwAENwHUn6193kttJ-c-1">
          <mxGeometry x="30" y="40" width="710" height="280" as="geometry" />
        </mxCell>
        <mxCell id="fvwAENwHUn6193kttJ-c-6" value="Public subnet" style="points=[[0,0],[0.25,0],[0.5,0],[0.75,0],[1,0],[1,0.25],[1,0.5],[1,0.75],[1,1],[0.75,1],[0.5,1],[0.25,1],[0,1],[0,0.75],[0,0.5],[0,0.25]];outlineConnect=0;gradientColor=none;html=1;whiteSpace=wrap;fontSize=12;fontStyle=0;container=1;pointerEvents=0;collapsible=0;recursiveResize=0;shape=mxgraph.aws4.group;grIcon=mxgraph.aws4.group_security_group;grStroke=0;strokeColor=#7AA116;fillColor=#F2F6E8;verticalAlign=top;align=left;spacingLeft=30;fontColor=#248814;dashed=0;" vertex="1" parent="fvwAENwHUn6193kttJ-c-5">
          <mxGeometry x="90" y="31.25" width="140" height="217.5" as="geometry" />
        </mxCell>
        <mxCell id="fvwAENwHUn6193kttJ-c-10" value="" style="sketch=0;outlineConnect=0;fontColor=#232F3E;gradientColor=none;fillColor=#8C4FFF;strokeColor=none;dashed=0;verticalLabelPosition=bottom;verticalAlign=top;align=center;html=1;fontSize=12;fontStyle=0;aspect=fixed;pointerEvents=1;shape=mxgraph.aws4.nat_gateway;" vertex="1" parent="fvwAENwHUn6193kttJ-c-6">
          <mxGeometry x="45" y="37.5" width="50" height="50" as="geometry" />
        </mxCell>
        <mxCell id="fvwAENwHUn6193kttJ-c-12" value="" style="sketch=0;points=[[0,0,0],[0.25,0,0],[0.5,0,0],[0.75,0,0],[1,0,0],[0,1,0],[0.25,1,0],[0.5,1,0],[0.75,1,0],[1,1,0],[0,0.25,0],[0,0.5,0],[0,0.75,0],[1,0.25,0],[1,0.5,0],[1,0.75,0]];outlineConnect=0;fontColor=#232F3E;fillColor=#8C4FFF;strokeColor=#ffffff;dashed=0;verticalLabelPosition=bottom;verticalAlign=top;align=center;html=1;fontSize=12;fontStyle=0;aspect=fixed;shape=mxgraph.aws4.resourceIcon;resIcon=mxgraph.aws4.elastic_load_balancing;" vertex="1" parent="fvwAENwHUn6193kttJ-c-6">
          <mxGeometry x="45" y="117.5" width="50" height="50" as="geometry" />
        </mxCell>
        <mxCell id="fvwAENwHUn6193kttJ-c-8" value="Private subnet" style="points=[[0,0],[0.25,0],[0.5,0],[0.75,0],[1,0],[1,0.25],[1,0.5],[1,0.75],[1,1],[0.75,1],[0.5,1],[0.25,1],[0,1],[0,0.75],[0,0.5],[0,0.25]];outlineConnect=0;gradientColor=none;html=1;whiteSpace=wrap;fontSize=12;fontStyle=0;container=1;pointerEvents=0;collapsible=0;recursiveResize=0;shape=mxgraph.aws4.group;grIcon=mxgraph.aws4.group_security_group;grStroke=0;strokeColor=#00A4A6;fillColor=#E6F6F7;verticalAlign=top;align=left;spacingLeft=30;fontColor=#147EBA;dashed=0;" vertex="1" parent="fvwAENwHUn6193kttJ-c-5">
          <mxGeometry x="560" y="31.25" width="130" height="217.5" as="geometry" />
        </mxCell>
        <mxCell id="fvwAENwHUn6193kttJ-c-23" value="" style="sketch=0;points=[[0,0,0],[0.25,0,0],[0.5,0,0],[0.75,0,0],[1,0,0],[0,1,0],[0.25,1,0],[0.5,1,0],[0.75,1,0],[1,1,0],[0,0.25,0],[0,0.5,0],[0,0.75,0],[1,0.25,0],[1,0.5,0],[1,0.75,0]];outlineConnect=0;fontColor=#232F3E;fillColor=#C925D1;strokeColor=#ffffff;dashed=0;verticalLabelPosition=bottom;verticalAlign=top;align=center;html=1;fontSize=12;fontStyle=0;aspect=fixed;shape=mxgraph.aws4.resourceIcon;resIcon=mxgraph.aws4.database;" vertex="1" parent="fvwAENwHUn6193kttJ-c-8">
          <mxGeometry x="40" y="91.49999999999994" width="50" height="50" as="geometry" />
        </mxCell>
        <mxCell id="fvwAENwHUn6193kttJ-c-7" value="Private subnet" style="points=[[0,0],[0.25,0],[0.5,0],[0.75,0],[1,0],[1,0.25],[1,0.5],[1,0.75],[1,1],[0.75,1],[0.5,1],[0.25,1],[0,1],[0,0.75],[0,0.5],[0,0.25]];outlineConnect=0;gradientColor=none;html=1;whiteSpace=wrap;fontSize=12;fontStyle=0;container=1;pointerEvents=0;collapsible=0;recursiveResize=0;shape=mxgraph.aws4.group;grIcon=mxgraph.aws4.group_security_group;grStroke=0;strokeColor=#00A4A6;fillColor=#E6F6F7;verticalAlign=top;align=left;spacingLeft=30;fontColor=#147EBA;dashed=0;" vertex="1" parent="fvwAENwHUn6193kttJ-c-5">
          <mxGeometry x="260" y="31.25" width="270" height="217.5" as="geometry" />
        </mxCell>
        <mxCell id="fvwAENwHUn6193kttJ-c-20" value="ECS" style="fillColor=none;strokeColor=#5A6C86;dashed=1;verticalAlign=top;fontStyle=0;fontColor=#5A6C86;whiteSpace=wrap;html=1;" vertex="1" parent="fvwAENwHUn6193kttJ-c-7">
          <mxGeometry x="55" y="44" width="160" height="145" as="geometry" />
        </mxCell>
        <mxCell id="fvwAENwHUn6193kttJ-c-21" value="" style="sketch=0;points=[[0,0,0],[0.25,0,0],[0.5,0,0],[0.75,0,0],[1,0,0],[0,1,0],[0.25,1,0],[0.5,1,0],[0.75,1,0],[1,1,0],[0,0.25,0],[0,0.5,0],[0,0.75,0],[1,0.25,0],[1,0.5,0],[1,0.75,0]];outlineConnect=0;fontColor=#232F3E;fillColor=#ED7100;strokeColor=#ffffff;dashed=0;verticalLabelPosition=bottom;verticalAlign=top;align=center;html=1;fontSize=12;fontStyle=0;aspect=fixed;shape=mxgraph.aws4.resourceIcon;resIcon=mxgraph.aws4.fargate;" vertex="1" parent="fvwAENwHUn6193kttJ-c-7">
          <mxGeometry x="96" y="77.5" width="78" height="78" as="geometry" />
        </mxCell>
        <mxCell id="fvwAENwHUn6193kttJ-c-29" style="edgeStyle=orthogonalEdgeStyle;rounded=0;orthogonalLoop=1;jettySize=auto;html=1;" edge="1" parent="fvwAENwHUn6193kttJ-c-5" source="fvwAENwHUn6193kttJ-c-11" target="fvwAENwHUn6193kttJ-c-12">
          <mxGeometry relative="1" as="geometry" />
        </mxCell>
        <mxCell id="fvwAENwHUn6193kttJ-c-11" value="" style="sketch=0;outlineConnect=0;fontColor=#232F3E;gradientColor=none;fillColor=#8C4FFF;strokeColor=none;dashed=0;verticalLabelPosition=bottom;verticalAlign=top;align=center;html=1;fontSize=12;fontStyle=0;aspect=fixed;pointerEvents=1;shape=mxgraph.aws4.internet_gateway;" vertex="1" parent="fvwAENwHUn6193kttJ-c-5">
          <mxGeometry x="20" y="148.75" width="50" height="50" as="geometry" />
        </mxCell>
        <mxCell id="fvwAENwHUn6193kttJ-c-31" style="edgeStyle=orthogonalEdgeStyle;rounded=0;orthogonalLoop=1;jettySize=auto;html=1;" edge="1" parent="fvwAENwHUn6193kttJ-c-5" source="fvwAENwHUn6193kttJ-c-12" target="fvwAENwHUn6193kttJ-c-21">
          <mxGeometry relative="1" as="geometry" />
        </mxCell>
        <mxCell id="fvwAENwHUn6193kttJ-c-32" style="edgeStyle=orthogonalEdgeStyle;rounded=0;orthogonalLoop=1;jettySize=auto;html=1;" edge="1" parent="fvwAENwHUn6193kttJ-c-5" source="fvwAENwHUn6193kttJ-c-21" target="fvwAENwHUn6193kttJ-c-23">
          <mxGeometry relative="1" as="geometry" />
        </mxCell>
        <mxCell id="fvwAENwHUn6193kttJ-c-33" style="edgeStyle=orthogonalEdgeStyle;rounded=0;orthogonalLoop=1;jettySize=auto;html=1;" edge="1" parent="fvwAENwHUn6193kttJ-c-5" source="fvwAENwHUn6193kttJ-c-10" target="fvwAENwHUn6193kttJ-c-11">
          <mxGeometry relative="1" as="geometry" />
        </mxCell>
        <mxCell id="fvwAENwHUn6193kttJ-c-34" style="edgeStyle=orthogonalEdgeStyle;rounded=0;orthogonalLoop=1;jettySize=auto;html=1;exitX=0;exitY=0.25;exitDx=0;exitDy=0;exitPerimeter=0;" edge="1" parent="fvwAENwHUn6193kttJ-c-5" source="fvwAENwHUn6193kttJ-c-21" target="fvwAENwHUn6193kttJ-c-10">
          <mxGeometry relative="1" as="geometry" />
        </mxCell>
        <mxCell id="fvwAENwHUn6193kttJ-c-27" style="edgeStyle=orthogonalEdgeStyle;rounded=0;orthogonalLoop=1;jettySize=auto;html=1;" edge="1" parent="fvwAENwHUn6193kttJ-c-1" source="fvwAENwHUn6193kttJ-c-24" target="fvwAENwHUn6193kttJ-c-25">
          <mxGeometry relative="1" as="geometry" />
        </mxCell>
        <mxCell id="fvwAENwHUn6193kttJ-c-24" value="" style="sketch=0;points=[[0,0,0],[0.25,0,0],[0.5,0,0],[0.75,0,0],[1,0,0],[0,1,0],[0.25,1,0],[0.5,1,0],[0.75,1,0],[1,1,0],[0,0.25,0],[0,0.5,0],[0,0.75,0],[1,0.25,0],[1,0.5,0],[1,0.75,0]];outlineConnect=0;fontColor=#232F3E;fillColor=#8C4FFF;strokeColor=#ffffff;dashed=0;verticalLabelPosition=bottom;verticalAlign=top;align=center;html=1;fontSize=12;fontStyle=0;aspect=fixed;shape=mxgraph.aws4.resourceIcon;resIcon=mxgraph.aws4.cloudfront;" vertex="1" parent="fvwAENwHUn6193kttJ-c-1">
          <mxGeometry x="30" y="350" width="50" height="50" as="geometry" />
        </mxCell>
        <mxCell id="fvwAENwHUn6193kttJ-c-25" value="" style="sketch=0;points=[[0,0,0],[0.25,0,0],[0.5,0,0],[0.75,0,0],[1,0,0],[0,1,0],[0.25,1,0],[0.5,1,0],[0.75,1,0],[1,1,0],[0,0.25,0],[0,0.5,0],[0,0.75,0],[1,0.25,0],[1,0.5,0],[1,0.75,0]];outlineConnect=0;fontColor=#232F3E;fillColor=#7AA116;strokeColor=#ffffff;dashed=0;verticalLabelPosition=bottom;verticalAlign=top;align=center;html=1;fontSize=12;fontStyle=0;aspect=fixed;shape=mxgraph.aws4.resourceIcon;resIcon=mxgraph.aws4.s3;" vertex="1" parent="fvwAENwHUn6193kttJ-c-1">
          <mxGeometry x="160" y="350" width="50" height="50" as="geometry" />
        </mxCell>
        <mxCell id="fvwAENwHUn6193kttJ-c-2" value="" style="sketch=0;outlineConnect=0;fontColor=#232F3E;gradientColor=none;fillColor=#232F3D;strokeColor=none;dashed=0;verticalLabelPosition=bottom;verticalAlign=top;align=center;html=1;fontSize=12;fontStyle=0;aspect=fixed;pointerEvents=1;shape=mxgraph.aws4.user;" vertex="1" parent="1">
          <mxGeometry x="280" y="660" width="50" height="50" as="geometry" />
        </mxCell>
        <mxCell id="fvwAENwHUn6193kttJ-c-28" style="edgeStyle=orthogonalEdgeStyle;rounded=0;orthogonalLoop=1;jettySize=auto;html=1;" edge="1" parent="1" source="fvwAENwHUn6193kttJ-c-14" target="fvwAENwHUn6193kttJ-c-11">
          <mxGeometry relative="1" as="geometry" />
        </mxCell>
        <mxCell id="fvwAENwHUn6193kttJ-c-14" value="" style="sketch=0;outlineConnect=0;fontColor=#232F3E;gradientColor=none;fillColor=#232F3D;strokeColor=none;dashed=0;verticalLabelPosition=bottom;verticalAlign=top;align=center;html=1;fontSize=12;fontStyle=0;aspect=fixed;pointerEvents=1;shape=mxgraph.aws4.internet;" vertex="1" parent="1">
          <mxGeometry x="290" y="508.36" width="50" height="30.78" as="geometry" />
        </mxCell>
        <mxCell id="fvwAENwHUn6193kttJ-c-26" style="edgeStyle=orthogonalEdgeStyle;rounded=0;orthogonalLoop=1;jettySize=auto;html=1;entryX=0;entryY=0.5;entryDx=0;entryDy=0;entryPerimeter=0;" edge="1" parent="1" source="fvwAENwHUn6193kttJ-c-2" target="fvwAENwHUn6193kttJ-c-24">
          <mxGeometry relative="1" as="geometry" />
        </mxCell>
      </root>
    </mxGraphModel>
  </diagram>
</mxfile>
